<?xml version="1.0" encoding="UTF-8"?>
<svg id="Layer_2" data-name="Layer 2" xmlns="http://www.w3.org/2000/svg" viewBox="0 0 54.3 54.3">
  <defs>
    <style>
      .cls-1 {
        fill: #5c9b4f;
      }

      .cls-1, .cls-2 {
        stroke-width: 0px;
      }

      .cls-2 {
        fill: #8fc9e7;
      }
    </style>
  </defs>
  <g id="Layer_1-2" data-name="Layer 1">
    <g>
      <path class="cls-2" d="M54.3,27.15c0,15.11-12.31,27.15-27.15,27.15S0,42.26,0,27.15,12.04,0,27.15,0s27.15,12.04,27.15,27.15"/>
      <path class="cls-1" d="M26.88,39.64c0-.54-.27-.81-.81-1.09-1.63-.54-3.26-.54-4.62-1.9-.27-.54-.27-1.09-.54-1.63-.54-.54-1.9-.81-2.71-1.09h-5.43c-.81-.27-1.36-1.36-1.9-2.17,0-.27,0-.82-.54-.82-.54-.27-1.09.27-1.63,0-.27-.27-.27-.54-.27-.81,0-.82.54-1.63,1.09-2.17.81-.54,1.63.27,2.44.27q.27,0,.54.27c.81.27,1.09,1.36,1.09,2.17v.54c0,.27.27.27.54.27.27-1.36.27-2.72.54-4.07,0-1.63,1.63-3.26,2.99-3.8.54-.27.81.27,1.36,0,1.63-.54,5.7-2.17,4.89-4.34-.54-1.9-2.17-3.8-4.34-3.53-.54.27-.81.54-1.36.82-.81.54-2.44,2.17-3.26,2.17-1.36-.27-1.36-2.17-1.09-2.99.27-1.09,2.71-4.61,4.34-4.07l1.09,1.09c.54.27,1.36.27,2.17.27.27,0,.54,0,.81-.27s.27-.27.27-.54c0-.81-.81-1.63-1.36-2.17s-1.36-1.09-2.17-1.36c-2.71-.82-7.06.27-9.23,2.17-2.17,1.9-3.8,5.16-4.89,7.87-.54,1.63-1.09,3.8-1.36,5.7-.27,1.36-.54,2.44.27,3.8.81,1.63,2.44,3.26,4.07,4.34,1.09.81,3.26.81,4.34,2.17.81,1.09.54,2.44.54,3.8,0,1.63,1.09,2.99,1.63,4.34.27.82.54,1.9.81,2.72,0,.27.27,1.9.27,2.17,1.63.81,2.99,1.63,4.89,2.17.27,0,1.36-1.63,1.36-1.9.81-.81,1.36-1.9,2.17-2.44.54-.27,1.09-.54,1.63-1.09.54-.54.81-1.63,1.09-2.44.27-.54.54-1.63.27-2.44M27.42,14.66c.27,0,.54-.27,1.09-.54.81-.54,1.63-1.36,2.44-1.9.82-.54,1.63-1.36,2.17-1.9.81-.54,1.36-1.63,1.63-2.44.27-.54,1.09-1.63.81-2.44-.27-.54-1.63-.81-2.17-1.09-2.17-.54-4.07-.81-6.25-.81-.81,0-1.9.27-2.17,1.09-.27,1.36.81,1.09,1.9,1.36,0,0,.27,2.17.27,2.44.27,1.36-.54,2.17-.54,3.53,0,.81,0,2.17.54,2.71h.27ZM50.23,33.67c.27-.54.27-1.36.54-1.9.27-1.36.27-2.71.27-4.07,0-2.71-.27-5.43-1.09-7.87-.54-.81-.82-1.63-1.09-2.44-.54-1.36-1.36-2.71-2.44-3.8-1.09-1.36-2.44-5.16-4.89-4.07-.81.27-1.36,1.36-1.9,1.9l-1.63,2.44c-.27.27-.54.81-.27,1.09,0,.27.27.27.54.27.54.27.82.27,1.36.54.27,0,.54.27.27.54,0,0,0,.27-.27.27-1.36,1.36-2.71,2.44-4.07,3.8-.27.27-.54.81-.54,1.09s.27.27.27.54-.27.27-.54.54c-.54.27-1.09.54-1.36.82-.27.54,0,1.36-.27,1.9-.27,1.36-1.09,2.44-1.63,3.8-.54.81-.81,1.63-1.36,2.44,0,1.09-.27,1.9.27,2.71,1.36,1.9,3.8.81,5.7,1.63.54.27,1.09.27,1.36.81.81.82.81,2.17,1.09,2.99.27,1.09.54,2.17,1.09,3.26.27,1.36.81,2.72,1.09,3.8,2.44-1.9,4.62-4.07,6.24-6.79,1.63-1.9,2.44-4.08,3.26-6.25"/>
    </g>
  </g>
</svg>