<?xml version="1.0" encoding="UTF-8"?>
<svg id="Layer_2" data-name="Layer 2" xmlns="http://www.w3.org/2000/svg" viewBox="0 0 58.36 70.14">
  <defs>
    <style>
      .cls-1 {
        fill: #fffdf8;
      }

      .cls-1, .cls-2 {
        stroke-width: 0px;
      }

      .cls-2 {
        fill: #72c063;
      }
    </style>
  </defs>
  <g id="Layer_1-2" data-name="Layer 1">
    <g>
      <polygon class="cls-2" points="37.49 50.97 37.49 24.14 26.82 24.14 26.82 50.97 16.82 50.97 32.15 70.14 47.49 50.97 37.49 50.97"/>
      <g>
        <g>
          <path class="cls-2" d="M58.36,25.6c0-4.68-3.47-8.55-7.98-9.18.98-1.47,1.56-3.24,1.56-5.15,0-5.12-4.15-9.27-9.27-9.27-1.93,0-3.72.59-5.2,1.6-1.7-2.19-4.35-3.6-7.33-3.6-3.79,0-7.04,2.27-8.48,5.52-1-.37-2.08-.57-3.21-.57-5.12,0-9.27,4.15-9.27,9.27,0,1.25.25,2.44.7,3.53-2.34,1.68-3.86,4.43-3.86,7.53,0,5.12,4.15,9.27,9.27,9.27.2,0,.4,0,.6-.02-.12.59-.18,1.19-.18,1.81,0,5.12,4.15,9.27,9.27,9.27,3.72,0,6.92-2.19,8.4-5.35,1.67,2.4,4.46,3.98,7.61,3.98,5.12,0,9.27-4.15,9.27-9.27,0-.06,0-.12,0-.18,4.57-.57,8.11-4.47,8.11-9.2Z"/>
          <path class="cls-2" d="M11.06,41.62c0-1.87-1.51-3.38-3.38-3.38-1.22,0-2.29.64-2.88,1.61-.43-.2-.91-.31-1.41-.31-1.87,0-3.38,1.51-3.38,3.38s1.51,3.38,3.38,3.38c.09,0,.19,0,.28-.01.19,1.69,1.62,3.01,3.36,3.01,1.87,0,3.38-1.51,3.38-3.38,0-.64-.18-1.25-.49-1.76.7-.62,1.14-1.53,1.14-2.53Z"/>
        </g>
        <g>
          <path class="cls-1" d="M22.97,17.08c-1.52,0-2.37.81-2.37,2.55v5.76c0,1.74.85,2.55,2.41,2.55,2.02,0,2.2-1.37,2.28-2.24.04-.51.46-.69,1.03-.69.73,0,1.07.22,1.07,1.09,0,2.18-1.8,3.7-4.51,3.7-2.39,0-4.37-1.21-4.37-4.41v-5.76c0-3.21,2-4.41,4.39-4.41,2.71,0,4.49,1.48,4.49,3.58,0,.89-.34,1.09-1.05,1.09-.63,0-1.03-.22-1.05-.69-.04-.69-.28-2.12-2.31-2.12Z"/>
          <path class="cls-1" d="M30.06,25.39v-5.76c0-3.21,1.92-4.41,4.43-4.41s4.45,1.21,4.45,4.41v5.76c0,3.21-1.96,4.41-4.45,4.41s-4.43-1.21-4.43-4.41ZM36.84,19.63c0-1.74-.89-2.55-2.35-2.55s-2.34.81-2.34,2.55v5.76c0,1.74.85,2.55,2.34,2.55s2.35-.81,2.35-2.55v-5.76Z"/>
          <path class="cls-1" d="M43.82,22.6c1.66,0,3.06,1.13,3.06,2.85,0,3.08-4.64,4.08-4.64,5.73v.54h4.21c.26,0,.5.3.5.66s-.24.69-.5.69h-5.1c-.29,0-.67-.2-.67-.5v-1.39c0-2.32,4.68-3.48,4.68-5.69,0-.7-.46-1.5-1.55-1.5-.8,0-1.45.44-1.45,1.42,0,.29-.3.57-.8.57-.4,0-.69-.2-.69-.84,0-1.53,1.37-2.53,2.94-2.53Z"/>
        </g>
      </g>
    </g>
  </g>
</svg>